<svg width="84" height="86" viewBox="0 0 84 86" fill="none" xmlns="http://www.w3.org/2000/svg" xmlns:xlink="http://www.w3.org/1999/xlink">
<path d="M23.086,58.629C22.305,59.41 22.305,60.677 23.086,61.458C23.867,62.239 25.133,62.239 25.914,61.458L23.086,58.629ZM60.914,26.458C61.695,25.677 61.695,24.41 60.914,23.629C60.133,22.848 58.867,22.848 58.086,23.629L60.914,26.458ZM25.914,61.458L60.914,26.458L58.086,23.629L23.086,58.629L25.914,61.458Z" fill="#FFFFFF"/>
<path d="M24.5,23.043C23.395,23.043 22.5,23.939 22.5,25.043C22.5,26.148 23.395,27.043 24.5,27.043L24.5,23.043ZM59.5,25.043L61.5,25.043C61.5,23.939 60.605,23.043 59.5,23.043L59.5,25.043ZM57.5,60.043C57.5,61.148 58.395,62.043 59.5,62.043C60.605,62.043 61.5,61.148 61.5,60.043L57.5,60.043ZM24.5,27.043L59.5,27.043L59.5,23.043L24.5,23.043L24.5,27.043ZM57.5,25.043L57.5,60.043L61.5,60.043L61.5,25.043L57.5,25.043Z" fill="#FFFFFF"/>
</svg>
