<svg width="66" height="66" viewBox="0 0 66 66" fill="none" xmlns="http://www.w3.org/2000/svg" xmlns:xlink="http://www.w3.org/1999/xlink">
<path d="M32.508,6.391C41.185,6.391 42.213,6.429 45.625,6.582C48.797,6.721 50.509,7.254 51.651,7.698C53.161,8.281 54.252,8.992 55.381,10.121C56.522,11.263 57.22,12.341 57.804,13.85C58.248,14.992 58.78,16.717 58.92,19.876C59.072,23.301 59.11,24.329 59.11,32.993C59.11,41.67 59.072,42.698 58.92,46.11C58.78,49.281 58.248,50.994 57.804,52.136C57.22,53.645 56.51,54.736 55.381,55.865C54.239,57.007 53.161,57.705 51.651,58.288C50.509,58.732 48.784,59.265 45.625,59.405C42.2,59.557 41.173,59.595 32.508,59.595C23.831,59.595 22.804,59.557 19.392,59.405C16.22,59.265 14.508,58.732 13.366,58.288C11.856,57.705 10.765,56.994 9.636,55.865C8.495,54.724 7.797,53.645 7.213,52.136C6.769,50.994 6.236,49.269 6.097,46.11C5.945,42.685 5.907,41.657 5.907,32.993C5.907,24.316 5.945,23.289 6.097,19.876C6.236,16.705 6.769,14.992 7.213,13.85C7.797,12.341 8.507,11.25 9.636,10.121C10.778,8.979 11.856,8.281 13.366,7.698C14.508,7.254 16.233,6.721 19.392,6.582C22.804,6.429 23.831,6.391 32.508,6.391ZM32.508,0.543C23.692,0.543 22.588,0.581 19.125,0.733C15.675,0.886 13.302,1.444 11.247,2.243C9.103,3.08 7.289,4.184 5.488,5.998C3.674,7.799 2.57,9.613 1.733,11.745C0.934,13.812 0.376,16.172 0.223,19.622C0.071,23.098 0.033,24.202 0.033,33.018C0.033,41.835 0.071,42.939 0.223,46.402C0.376,49.852 0.934,52.225 1.733,54.28C2.57,56.423 3.674,58.238 5.488,60.039C7.289,61.84 9.103,62.957 11.235,63.781C13.302,64.58 15.662,65.138 19.112,65.291C22.576,65.443 23.679,65.481 32.496,65.481C41.312,65.481 42.416,65.443 45.879,65.291C49.33,65.138 51.702,64.58 53.757,63.781C55.888,62.957 57.702,61.84 59.503,60.039C61.305,58.238 62.421,56.423 63.246,54.292C64.045,52.225 64.603,49.865 64.755,46.414C64.908,42.951 64.946,41.848 64.946,33.031C64.946,24.215 64.908,23.111 64.755,19.648C64.603,16.197 64.045,13.825 63.246,11.77C62.447,9.613 61.343,7.799 59.529,5.998C57.728,4.197 55.913,3.08 53.782,2.256C51.715,1.457 49.355,0.898 45.904,0.746C42.429,0.581 41.325,0.543 32.508,0.543Z" fill="#FFFFFF" fill-opacity="0.5"/>
<path d="M32.508,16.337C23.299,16.337 15.827,23.809 15.827,33.019C15.827,42.228 23.299,49.7 32.508,49.7C41.718,49.7 49.19,42.228 49.19,33.019C49.19,23.809 41.718,16.337 32.508,16.337ZM32.508,43.839C26.533,43.839 21.687,38.994 21.687,33.019C21.687,27.044 26.533,22.198 32.508,22.198C38.483,22.198 43.329,27.044 43.329,33.019C43.329,38.994 38.483,43.839 32.508,43.839Z" fill="#FFFFFF" fill-opacity="0.5"/>
<path d="M53.744,15.677C53.744,17.834 51.993,19.571 49.85,19.571C47.693,19.571 45.955,17.821 45.955,15.677C45.955,13.52 47.706,11.782 49.85,11.782C51.993,11.782 53.744,13.533 53.744,15.677Z" fill="#FFFFFF" fill-opacity="0.5"/>
</svg>
