<svg width="66" height="66" viewBox="0 0 66 66" fill="none" xmlns="http://www.w3.org/2000/svg" xmlns:xlink="http://www.w3.org/1999/xlink">
<path d="M32.508,4.899C41.185,4.899 42.213,4.937 45.625,5.089C48.797,5.229 50.509,5.761 51.651,6.205C53.161,6.789 54.252,7.499 55.381,8.628C56.522,9.77 57.22,10.848 57.804,12.358C58.248,13.5 58.78,15.225 58.92,18.384C59.072,21.809 59.11,22.836 59.11,31.501C59.11,40.178 59.072,41.205 58.92,44.618C58.78,47.789 58.248,49.502 57.804,50.643C57.22,52.153 56.51,53.244 55.381,54.373C54.239,55.515 53.161,56.212 51.651,56.796C50.509,57.24 48.784,57.773 45.625,57.912C42.2,58.064 41.173,58.102 32.508,58.102C23.831,58.102 22.804,58.064 19.392,57.912C16.22,57.773 14.508,57.24 13.366,56.796C11.856,56.212 10.765,55.502 9.636,54.373C8.495,53.231 7.797,52.153 7.213,50.643C6.769,49.502 6.236,47.776 6.097,44.618C5.945,41.193 5.907,40.165 5.907,31.501C5.907,22.824 5.945,21.796 6.097,18.384C6.236,15.212 6.769,13.5 7.213,12.358C7.797,10.848 8.507,9.757 9.636,8.628C10.778,7.487 11.856,6.789 13.366,6.205C14.508,5.761 16.233,5.229 19.392,5.089C22.804,4.937 23.831,4.899 32.508,4.899ZM32.508,-0.949C23.692,-0.949 22.588,-0.911 19.125,-0.759C15.675,-0.607 13.302,-0.049 11.247,0.751C9.103,1.588 7.289,2.692 5.488,4.506C3.674,6.307 2.57,8.121 1.733,10.252C0.934,12.32 0.376,14.68 0.223,18.13C0.071,21.606 0.033,22.71 0.033,31.526C0.033,40.343 0.071,41.446 0.223,44.909C0.376,48.36 0.934,50.732 1.733,52.787C2.57,54.931 3.674,56.745 5.488,58.546C7.289,60.348 9.103,61.464 11.235,62.289C13.302,63.088 15.662,63.646 19.112,63.798C22.576,63.951 23.679,63.989 32.496,63.989C41.312,63.989 42.416,63.951 45.879,63.798C49.33,63.646 51.702,63.088 53.757,62.289C55.888,61.464 57.702,60.348 59.503,58.546C61.305,56.745 62.421,54.931 63.246,52.8C64.045,50.732 64.603,48.373 64.755,44.922C64.908,41.459 64.946,40.355 64.946,31.539C64.946,22.722 64.908,21.619 64.755,18.155C64.603,14.705 64.045,12.333 63.246,10.278C62.447,8.121 61.343,6.307 59.529,4.506C57.728,2.704 55.913,1.588 53.782,0.763C51.715,-0.036 49.355,-0.594 45.904,-0.746C42.429,-0.911 41.325,-0.949 32.508,-0.949Z" fill="#FFFFFF"/>
<path d="M32.508,14.844C23.299,14.844 15.827,22.316 15.827,31.526C15.827,40.736 23.299,48.207 32.508,48.207C41.718,48.207 49.19,40.736 49.19,31.526C49.19,22.316 41.718,14.844 32.508,14.844ZM32.508,42.347C26.533,42.347 21.687,37.501 21.687,31.526C21.687,25.551 26.533,20.705 32.508,20.705C38.483,20.705 43.329,25.551 43.329,31.526C43.329,37.501 38.483,42.347 32.508,42.347Z" fill="#FFFFFF"/>
<path d="M53.744,14.185C53.744,16.341 51.993,18.079 49.85,18.079C47.693,18.079 45.955,16.328 45.955,14.185C45.955,12.028 47.706,10.29 49.85,10.29C51.993,10.29 53.744,12.041 53.744,14.185Z" fill="#FFFFFF"/>
</svg>
