<svg width="54" height="52" viewBox="0 0 54 52" fill="none" xmlns="http://www.w3.org/2000/svg" xmlns:xlink="http://www.w3.org/1999/xlink">
<path d="M41.782,32.187C41.092,32.856 40.774,33.824 40.932,34.773L43.302,47.893C43.502,49.005 43.033,50.131 42.102,50.773C41.19,51.44 39.977,51.52 38.982,50.987L27.172,44.827C26.761,44.608 26.305,44.491 25.838,44.477L25.116,44.477C24.865,44.515 24.62,44.595 24.396,44.717L12.582,50.907C11.998,51.2 11.337,51.304 10.689,51.2C9.11,50.901 8.057,49.397 8.316,47.811L10.689,34.691C10.846,33.733 10.529,32.76 9.838,32.08L0.209,22.747C-0.596,21.965 -0.876,20.792 -0.508,19.733C-0.151,18.677 0.761,17.907 1.862,17.733L15.116,15.811C16.124,15.707 17.009,15.093 17.462,14.187L23.302,2.213C23.441,1.947 23.62,1.701 23.836,1.493L24.076,1.307C24.201,1.168 24.345,1.053 24.505,0.96L24.796,0.853L25.249,0.667L26.372,0.667C27.374,0.771 28.257,1.371 28.718,2.267L34.636,14.187C35.062,15.059 35.892,15.664 36.849,15.811L50.102,17.733C51.222,17.893 52.158,18.667 52.529,19.733C52.878,20.803 52.577,21.976 51.756,22.747L41.782,32.187Z" fill="#FD853A"/>
</svg>
