<svg width="64" height="54" viewBox="0 0 64 54" fill="none" xmlns="http://www.w3.org/2000/svg" xmlns:xlink="http://www.w3.org/1999/xlink">
<path d="M19.449,53.404C43.953,53.404 57.359,33.098 57.359,15.494C57.359,14.923 57.346,14.34 57.321,13.769C59.929,11.883 62.18,9.547 63.967,6.871C61.538,7.951 58.96,8.657 56.319,8.964C59.099,7.297 61.181,4.679 62.178,1.595C59.563,3.145 56.702,4.238 53.72,4.828C51.71,2.693 49.053,1.279 46.159,0.805C43.265,0.331 40.296,0.824 37.71,2.207C35.124,3.59 33.066,5.787 31.854,8.457C30.642,11.127 30.343,14.122 31.003,16.979C25.707,16.713 20.526,15.337 15.795,12.94C11.065,10.544 6.891,7.18 3.544,3.066C1.843,5.999 1.323,9.47 2.088,12.772C2.854,16.075 4.849,18.963 7.667,20.848C5.551,20.78 3.482,20.211 1.63,19.186L1.63,19.351C1.628,22.428 2.692,25.412 4.641,27.794C6.59,30.176 9.304,31.81 12.321,32.417C10.361,32.953 8.304,33.031 6.31,32.645C7.161,35.292 8.818,37.607 11.048,39.267C13.279,40.928 15.972,41.85 18.752,41.906C14.032,45.613 8.202,47.624 2.201,47.614C1.136,47.613 0.073,47.547 -0.983,47.419C5.113,51.33 12.206,53.408 19.449,53.404Z" fill="#FFFFFF" fill-opacity="0.5"/>
</svg>
