<svg width="66" height="66" viewBox="0 0 66 66" fill="none" xmlns="http://www.w3.org/2000/svg" xmlns:xlink="http://www.w3.org/1999/xlink">
<path d="M64.95,33.019C64.95,15.083 50.411,0.543 32.475,0.543C14.54,0.543 0,15.083 0,33.019C0,49.228 11.876,62.663 27.401,65.099L27.401,42.406L19.155,42.406L19.155,33.019L27.401,33.019L27.401,25.864C27.401,17.725 32.249,13.229 39.667,13.229C43.219,13.229 46.937,13.863 46.937,13.863L46.937,21.855L42.842,21.855C38.808,21.855 37.55,24.359 37.55,26.93L37.55,33.019L46.556,33.019L45.116,42.406L37.55,42.406L37.55,65.099C53.075,62.663 64.95,49.228 64.95,33.019Z" fill="#FFFFFF" fill-opacity="0.5"/>
</svg>
