<svg width="64" height="66" viewBox="0 0 64 66" fill="none" xmlns="http://www.w3.org/2000/svg" xmlns:xlink="http://www.w3.org/1999/xlink">
<path d="M59.192,0.543L3.844,0.543C1.193,0.543 -0.951,2.636 -0.951,5.224L-0.951,60.8C-0.951,63.388 1.193,65.494 3.844,65.494L59.192,65.494C61.843,65.494 64,63.388 64,60.813L64,5.224C64,2.636 61.843,0.543 59.192,0.543ZM18.319,55.891L8.678,55.891L8.678,24.887L18.319,24.887L18.319,55.891ZM13.498,20.663C10.403,20.663 7.904,18.164 7.904,15.081C7.904,11.998 10.403,9.499 13.498,9.499C16.581,9.499 19.08,11.998 19.08,15.081C19.08,18.151 16.581,20.663 13.498,20.663ZM54.397,55.891L44.768,55.891L44.768,40.82C44.768,37.23 44.705,32.6 39.758,32.6C34.747,32.6 33.986,36.52 33.986,40.566L33.986,55.891L24.37,55.891L24.37,24.887L33.605,24.887L33.605,29.124L33.732,29.124C35.013,26.688 38.159,24.113 42.84,24.113C52.596,24.113 54.397,30.532 54.397,38.879L54.397,55.891L54.397,55.891Z" fill="#FFFFFF" fill-opacity="0.5"/>
</svg>
