<svg width="66" height="64" viewBox="0 0 66 64" fill="none" xmlns="http://www.w3.org/2000/svg" xmlns:xlink="http://www.w3.org/1999/xlink">
<path d="M64.95,31.526C64.95,13.59 50.411,-0.949 32.475,-0.949C14.54,-0.949 0,13.59 0,31.526C0,47.735 11.876,61.17 27.401,63.607L27.401,40.913L19.155,40.913L19.155,31.526L27.401,31.526L27.401,24.371C27.401,16.232 32.249,11.736 39.667,11.736C43.219,11.736 46.937,12.371 46.937,12.371L46.937,20.363L42.842,20.363C38.808,20.363 37.55,22.866 37.55,25.437L37.55,31.526L46.556,31.526L45.116,40.913L37.55,40.913L37.55,63.607C53.075,61.17 64.95,47.735 64.95,31.526Z" fill="#FFFFFF"/>
</svg>
