<svg width="32" height="32" viewBox="0 0 32 32" fill="none" xmlns="http://www.w3.org/2000/svg" xmlns:xlink="http://www.w3.org/1999/xlink">
<path d="M13.777,18.35C14.46,19 14.46,20.067 13.777,20.717C13.127,21.367 12.06,21.367 11.41,20.717C9.849,19.153 8.973,17.034 8.973,14.825C8.973,12.616 9.849,10.497 11.41,8.934L17.31,3.034C18.874,1.472 20.993,0.596 23.202,0.596C25.411,0.596 27.53,1.472 29.094,3.034C30.655,4.597 31.532,6.716 31.532,8.925C31.532,11.134 30.655,13.253 29.094,14.817L26.61,17.3C26.627,15.934 26.41,14.567 25.944,13.267L26.727,12.467C27.194,12.005 27.565,11.454 27.818,10.848C28.072,10.241 28.202,9.591 28.202,8.934C28.202,8.276 28.072,7.626 27.818,7.019C27.565,6.413 27.194,5.862 26.727,5.4C26.265,4.933 25.715,4.562 25.108,4.309C24.502,4.056 23.851,3.925 23.194,3.925C22.537,3.925 21.886,4.056 21.279,4.309C20.673,4.562 20.123,4.933 19.66,5.4L13.777,11.284C13.31,11.746 12.939,12.296 12.686,12.902C12.433,13.509 12.302,14.16 12.302,14.817C12.302,15.474 12.433,16.125 12.686,16.731C12.939,17.338 13.31,17.888 13.777,18.35ZM18.477,11.284C19.127,10.634 20.194,10.634 20.844,11.284C22.405,12.847 23.282,14.966 23.282,17.175C23.282,19.384 22.405,21.504 20.844,23.067L14.944,28.967C13.38,30.528 11.261,31.405 9.052,31.405C6.843,31.405 4.724,30.528 3.16,28.967C1.599,27.404 0.723,25.285 0.723,23.075C0.723,20.866 1.599,18.747 3.16,17.184L5.644,14.7C5.627,16.067 5.844,17.434 6.31,18.75L5.527,19.534C5.06,19.996 4.689,20.546 4.436,21.153C4.183,21.759 4.052,22.41 4.052,23.067C4.052,23.724 4.183,24.375 4.436,24.981C4.689,25.588 5.06,26.138 5.527,26.6C5.989,27.068 6.54,27.438 7.146,27.692C7.753,27.945 8.403,28.075 9.06,28.075C9.718,28.075 10.368,27.945 10.975,27.692C11.581,27.438 12.132,27.068 12.594,26.6L18.477,20.717C18.944,20.255 19.315,19.704 19.568,19.098C19.822,18.491 19.952,17.841 19.952,17.184C19.952,16.526 19.822,15.876 19.568,15.269C19.315,14.663 18.944,14.112 18.477,13.65C18.315,13.499 18.186,13.315 18.098,13.112C18.01,12.908 17.964,12.689 17.964,12.467C17.964,12.245 18.01,12.026 18.098,11.822C18.186,11.618 18.315,11.435 18.477,11.284Z" fill="#FFFFFF"/>
</svg>
