<svg width="64" height="66" viewBox="0 0 64 66" fill="none" xmlns="http://www.w3.org/2000/svg" xmlns:xlink="http://www.w3.org/1999/xlink">
<path d="M59.191,-0.949L3.844,-0.949C1.193,-0.949 -0.951,1.144 -0.951,3.732L-0.951,59.308C-0.951,61.895 1.193,64.001 3.844,64.001L59.191,64.001C61.843,64.001 63.999,61.895 63.999,59.32L63.999,3.732C63.999,1.144 61.843,-0.949 59.191,-0.949ZM18.318,54.398L8.677,54.398L8.677,23.395L18.318,23.395L18.318,54.398ZM13.498,19.17C10.402,19.17 7.903,16.671 7.903,13.589C7.903,10.506 10.402,8.007 13.498,8.007C16.58,8.007 19.079,10.506 19.079,13.589C19.079,16.658 16.58,19.17 13.498,19.17ZM54.396,54.398L44.768,54.398L44.768,39.328C44.768,35.738 44.704,31.107 39.757,31.107C34.746,31.107 33.985,35.027 33.985,39.074L33.985,54.398L24.369,54.398L24.369,23.395L33.604,23.395L33.604,27.632L33.731,27.632C35.013,25.196 38.159,22.621 42.84,22.621C52.595,22.621 54.396,29.04 54.396,37.387L54.396,54.398L54.396,54.398Z" fill="#FFFFFF"/>
</svg>
