<svg width="64" height="52" viewBox="0 0 64 52" fill="none" xmlns="http://www.w3.org/2000/svg" xmlns:xlink="http://www.w3.org/1999/xlink">
<path d="M19.448,51.912C43.952,51.912 57.358,31.606 57.358,14.002C57.358,13.431 57.345,12.848 57.32,12.277C59.928,10.391 62.179,8.055 63.966,5.378C61.537,6.459 58.959,7.165 56.318,7.472C59.098,5.805 61.18,3.187 62.177,0.102C59.562,1.653 56.701,2.746 53.719,3.336C51.709,1.201 49.052,-0.213 46.158,-0.687C43.264,-1.161 40.295,-0.668 37.709,0.715C35.123,2.098 33.065,4.294 31.853,6.964C30.641,9.634 30.342,12.629 31.002,15.486C25.706,15.221 20.525,13.845 15.794,11.448C11.064,9.051 6.89,5.687 3.543,1.574C1.842,4.507 1.322,7.977 2.087,11.28C2.853,14.583 4.848,17.47 7.666,19.355C5.55,19.288 3.481,18.719 1.629,17.694L1.629,17.859C1.627,20.936 2.691,23.92 4.64,26.302C6.589,28.684 9.303,30.317 12.32,30.925C10.36,31.461 8.304,31.539 6.309,31.153C7.16,33.8 8.817,36.115 11.047,37.775C13.278,39.435 15.971,40.358 18.751,40.414C14.031,44.121 8.201,46.132 2.2,46.122C1.135,46.12 0.072,46.055 -0.984,45.927C5.112,49.838 12.205,51.916 19.448,51.912Z" fill="#FFFFFF"/>
</svg>
